<?xml version="1.0" encoding="UTF-8"?>
<svg width="91px" height="90px" viewBox="0 0 91 90" version="1.1" xmlns="http://www.w3.org/2000/svg" xmlns:xlink="http://www.w3.org/1999/xlink">
    <!-- Generator: Sketch 52.5 (67469) - http://www.bohemiancoding.com/sketch -->
    <title>data</title>
    <desc>Created with Sketch.</desc>
    <g id="Welcome" stroke="none" stroke-width="1" fill="none" fill-rule="evenodd">
        <g id="Desktop-HD-Copy" transform="translate(-676.000000, -320.000000)" fill="#000000">
            <g id="Backend" transform="translate(548.000000, 320.000000)">
                <g id="data" transform="translate(128.000000, 0.000000)">
                    <path d="M51.2743497,52.1508828 L51.2743497,43.4831461 L33.3707865,43.4831461 L33.3707865,53.5955056 L51.5730337,53.5955056 C51.4236917,53.1624008 51.2743497,52.5846928 51.2743497,52.1508828 Z" id="Path"></path>
                    <path d="M55.5505618,44.2610199 L55.5505618,53.1287813 C55.5505618,54.0157018 56.171392,54.6067416 57.1011236,54.6067416 C58.031612,54.6067416 58.6516854,54.0157018 58.6516854,53.1287813 L58.6516854,38.3491789 L46.247191,38.3491789 L46.247191,35.3932584 L35.3932584,35.3932584 L35.3932584,41.3050994 L52.4494382,41.3050994 C54.1552076,41.3050994 55.5505618,42.6358408 55.5505618,44.2610199 Z" id="Path"></path>
                    <path d="M45.505618,66.741573 C57.1856894,66.741573 66.741573,57.4132105 66.741573,46.011236 C66.741573,34.6099842 57.1856894,25.2808989 45.505618,25.2808989 C33.8262869,25.2808989 24.2696629,34.6099842 24.2696629,46.011236 C24.2696629,57.4132105 33.8262869,66.741573 45.505618,66.741573 Z M30.3370787,44.5304976 C30.3370787,43.4944144 30.9444126,42.4576084 31.8539326,42.013676 L31.8539326,35.6460674 C31.8539326,34.0178334 33.2196935,32.6845907 34.8876404,32.6845907 L45.505618,32.6845907 C47.1743054,32.6845907 48.5393258,34.0178334 48.5393258,35.6460674 L57.6404494,35.6460674 C59.3091368,35.6460674 60.6741573,36.9793102 60.6741573,38.6075441 L60.6741573,53.4149278 C60.6741573,55.9324721 58.7025434,57.8571429 56.1235955,57.8571429 L33.3707865,57.8571429 C31.7028395,57.8571429 30.3370787,56.5246229 30.3370787,54.8956661 L30.3370787,44.5304976 Z" id="Shape" fill-rule="nonzero"></path>
                    <path d="M6.41905667,26.2921348 C3.92808785,26.2921348 2.02247191,28.3375394 2.02247191,31.011236 C2.02247191,33.6857004 3.92808785,35.7303371 6.41905667,35.7303371 C7.00584026,35.7303371 7.73860438,35.573648 8.32467261,35.2587341 L11.8417973,39.0338614 C12.7212574,39.9778352 13.7466979,40.4494382 14.9195497,40.4494382 L21.5144269,40.4494382 C21.6611228,39.3487753 21.9537992,38.4048015 22.247191,37.3033708 L14.9195497,37.3033708 C14.4794621,37.3033708 14.1867856,37.1466817 13.8933938,36.8317678 L10.3762691,33.0566405 C10.6696609,32.4275806 10.8156414,31.6410637 10.8156414,31.011236 C10.8156414,28.3375394 8.91074084,26.2921348 6.41905667,26.2921348 Z M6.41905667,32.5842697 C5.540312,32.5842697 4.95352842,31.9552097 4.95352842,31.011236 C4.95352842,30.06803 5.540312,29.4382022 6.41905667,29.4382022 C7.29851669,29.4382022 7.88458492,30.06803 7.88458492,31.011236 C7.88458492,31.9552097 7.29851669,32.5842697 6.41905667,32.5842697 Z" id="Shape" fill-rule="nonzero"></path>
                    <path d="M27.3033708,29.9378127 L18.9903878,22.0680882 C18.6703275,21.7650939 18.5102974,21.4620996 18.5102974,21.008347 L18.5102974,18.8896034 C21.0684384,17.9813594 22.3478992,15.4081244 21.3884987,13.1378837 C20.4290983,10.7168846 17.7109271,9.50564626 15.3128161,10.4138903 C12.9147052,11.3221343 11.4759947,13.8946306 12.4353952,16.1648713 C12.9147052,17.5276067 14.0341358,18.435112 15.3128161,18.8896034 L15.3128161,21.008347 C15.3128161,22.2188465 15.7929066,23.4300848 16.752307,24.1868317 L25.3853503,32.3595506 C26.0246904,31.6028037 26.6640306,30.6945596 27.3033708,29.9378127 Z M16.9115568,16.1648713 C15.9529367,16.1648713 15.3128161,15.5596215 15.3128161,14.6513775 C15.3128161,13.7438722 15.9529367,13.1378837 16.9115568,13.1378837 C17.8709572,13.1378837 18.5102974,13.7438722 18.5102974,14.6513775 C18.5102974,15.5596215 17.8709572,16.1648713 16.9115568,16.1648713 Z" id="Shape" fill-rule="nonzero"></path>
                    <path d="M76.6948744,20.9259758 L76.6948744,18.8199649 C79.2498619,17.917179 80.5277454,15.3594079 79.5695277,13.1028103 C78.6113099,10.8462127 76.0563224,9.49240099 73.5013349,10.3951869 C70.9471268,11.2979728 69.6692433,13.8550095 70.6274611,16.1116071 C71.1061802,17.4661532 72.2242308,18.3682047 73.5013349,18.8199649 L73.5013349,20.9259758 C73.5013349,21.3770016 73.3422814,21.678175 73.0226157,21.9793484 L64.7191011,29.8017795 C65.3584326,30.5539787 65.9969846,31.4567646 66.6355366,32.3595506 L75.2579375,24.235946 C76.2161553,23.1825734 76.6948744,22.1292008 76.6948744,20.9259758 Z M73.5013349,14.6072087 C73.5013349,13.7051571 74.1406663,13.1028103 75.0981046,13.1028103 C76.0563224,13.1028103 76.6948744,13.7051571 76.6948744,14.6072087 C76.6948744,15.5099946 76.0563224,16.1116071 75.0981046,16.1116071 C74.1406663,16.1116071 73.5013349,15.5099946 73.5013349,14.6072087 Z" id="Shape" fill-rule="nonzero"></path>
                    <path d="M59.6204846,16.3430494 C59.6204846,15.8881312 59.7701941,15.585592 60.0696133,15.2823132 L68.7440074,6.49610307 C69.0434265,6.19282432 69.4918251,6.04118495 69.7912443,6.04118495 L82.3544368,6.04118495 C83.2519641,8.46519655 85.7941065,9.67757208 88.0375598,8.7684753 C90.2810131,7.85937851 91.6276691,5.28372754 90.7301418,3.01135532 C89.8326145,0.738983099 87.4394516,-0.62429234 85.0462887,0.284804442 C83.7003627,0.738983099 82.8028354,1.79971926 82.3544368,3.01135532 L69.7912443,3.01135532 C68.5942978,3.01135532 67.3980814,3.46627345 66.6502636,4.37537023 L57.9758695,13.1615804 C57.0783422,14.0706771 56.6292135,15.1306738 56.6292135,16.3430494 L56.6292135,23.6143447 C57.6764504,24.0692628 58.7236873,24.6750808 59.6204846,25.2808989 L59.6204846,16.3430494 Z M86.5419243,3.01135532 C87.4394516,3.01135532 88.0375598,3.61791282 88.0375598,4.52627013 C88.0375598,5.43536692 87.4394516,6.04118495 86.5419243,6.04118495 C85.645127,6.04118495 85.0462887,5.43536692 85.0462887,4.52627013 C85.0462887,3.61791282 85.645127,3.01135532 86.5419243,3.01135532 Z" id="Shape" fill-rule="nonzero"></path>
                    <path d="M47.5280908,81.6218798 L47.5280908,69.7752809 C47.0732208,69.7752809 46.4664805,69.9198892 46.0108699,69.9198892 C45.5559998,69.9198892 44.9492596,69.9198892 44.4936489,69.7752809 L44.4936489,81.6218798 C42.0666879,82.4888245 40.8524668,84.9443451 41.7629475,87.1113543 C42.6734282,89.4229718 45.2522594,90.5791331 47.5280908,89.7121884 C49.9557925,88.8452437 51.1700136,86.3890179 50.2595329,84.2220087 C49.8039223,83.0665526 48.8941822,82.0549995 47.5280908,81.6218798 Z M46.0108699,87.1113543 C45.1011298,87.1113543 44.4936489,86.5336262 44.4936489,85.6666815 C44.4936489,84.800442 45.1011298,84.2220087 46.0108699,84.2220087 C46.9213506,84.2220087 47.5280908,84.800442 47.5280908,85.6666815 C47.5280908,86.5336262 46.9213506,87.1113543 46.0108699,87.1113543 Z" id="Shape" fill-rule="nonzero"></path>
                    <path d="M32.3595506,72.1368322 C32.3595506,72.5906925 32.2084575,72.8937586 31.9047905,73.1968248 L23.7139274,81.3714822 C23.1073339,81.0684161 22.3489069,80.916883 21.741573,80.916883 C19.1633656,80.916883 17.1910112,82.8853351 17.1910112,85.4584415 C17.1910112,88.0322869 19.1633656,90 21.741573,90 C24.3205209,90 26.2921348,88.0322869 26.2921348,85.4584415 C26.2921348,84.8530482 26.1410418,84.0961218 25.8373748,83.4907284 L34.028238,75.3160709 C34.9384984,74.4076114 35.3932584,73.3476189 35.3932584,72.1368322 L35.3932584,66.384487 C34.3319049,65.9298878 33.269811,65.3244945 32.3595506,64.7191011 L32.3595506,72.1368322 Z M21.741573,86.9722943 C20.832053,86.9722943 20.2247191,86.366901 20.2247191,85.4584415 C20.2247191,84.550721 20.832053,83.9445887 21.741573,83.9445887 C22.6518335,83.9445887 23.258427,84.550721 23.258427,85.4584415 C23.258427,86.366901 22.6518335,86.9722943 21.741573,86.9722943 Z" id="Shape" fill-rule="nonzero"></path>
                    <path d="M69.2696629,80.916883 C68.6630694,80.916883 67.9046425,81.0684161 67.298049,81.3714822 L59.1071858,73.1968248 C58.8035189,72.8937586 58.6516854,72.5906925 58.6516854,72.1368322 L58.6516854,64.7191011 C57.7421654,65.3244945 56.6800714,65.9298878 55.6179775,66.384487 L55.6179775,72.1368322 C55.6179775,73.3476189 56.073478,74.5591445 56.9837384,75.3160709 L65.1746016,83.4907284 C64.8709346,84.0961218 64.7191011,84.8530482 64.7191011,85.4584415 C64.7191011,88.0322869 66.6914555,90 69.2696629,90 C71.8486108,90 73.8202247,88.0322869 73.8202247,85.4584415 C73.8202247,82.8853351 71.8486108,80.916883 69.2696629,80.916883 Z M69.2696629,86.9722943 C68.3601429,86.9722943 67.752809,86.366901 67.752809,85.4584415 C67.752809,84.550721 68.3601429,83.9445887 69.2696629,83.9445887 C70.1799234,83.9445887 70.7865169,84.550721 70.7865169,85.4584415 C70.7865169,86.366901 70.1799234,86.9722943 69.2696629,86.9722943 Z" id="Shape" fill-rule="nonzero"></path>
                    <path d="M86.5252455,50.9120578 C84.5812943,50.9120578 82.9360195,52.079361 82.3379368,53.8292478 L80.2442825,53.8292478 C79.795173,53.8292478 79.4964967,53.6839579 79.1970903,53.3919541 L70.0739572,44.494382 L70.0739572,45.0776776 C70.0739572,46.0989789 69.9249841,47.2655702 69.7752809,48.2868715 L77.103436,55.4338447 C78.000925,56.3091442 79.0473872,56.7464379 80.2442825,56.7464379 L82.3379368,56.7464379 C83.2354258,59.0803323 85.7774596,60.2476355 88.0208171,59.3723361 C90.4138778,58.4970367 91.6107731,56.0171404 90.7132841,53.8292478 C90.1152015,52.079361 88.4699266,50.9120578 86.5252455,50.9120578 Z M86.5252455,56.7464379 C85.6284865,56.7464379 85.0296738,56.1631423 85.0296738,55.2878428 C85.0296738,54.4132554 85.6284865,53.8292478 86.5252455,53.8292478 C87.4227345,53.8292478 88.0208171,54.4132554 88.0208171,55.2878428 C88.0208171,56.1631423 87.4227345,56.7464379 86.5252455,56.7464379 Z" id="Shape" fill-rule="nonzero"></path>
                    <path d="M11.0960953,72.2973595 L11.0960953,70.2210327 C11.0960953,69.7756401 11.2472772,69.4794357 11.5496409,69.1825074 L18.7989972,62.0634659 C19.1013609,61.7665375 19.4029873,61.6180733 19.8565329,61.6180733 L28.3146067,61.6180733 C27.4082529,60.7287361 26.6530809,59.6902108 25.8979089,58.6516854 L20.0077147,58.6516854 C18.7989972,58.6516854 17.5910169,59.097078 16.8358449,59.9871392 L9.58575131,67.1061806 C8.52895285,67.9962418 8.07540731,69.0340432 8.07540731,70.2210327 L8.07540731,72.2973595 C5.65944669,73.1874207 4.45072915,75.708416 5.357083,77.933207 C6.26343685,80.3064621 8.83057931,81.4934517 11.0960953,80.6033905 C13.5127932,79.7133293 14.7215107,77.19161 13.8151569,74.966819 C13.3616113,73.7805535 12.4559947,72.7420281 11.0960953,72.2973595 Z M9.58575131,77.933207 C8.6801347,77.933207 8.07540731,77.3400742 8.07540731,76.450013 C8.07540731,75.5606758 8.6801347,74.966819 9.58575131,74.966819 C10.4921052,74.966819 11.0960953,75.5606758 11.0960953,76.450013 C11.0960953,77.3400742 10.4921052,77.933207 9.58575131,77.933207 Z" id="Shape" fill-rule="nonzero"></path>
                    <path d="M82.9220394,72.2973595 L82.9220394,70.2210327 C82.9220394,69.0340432 82.4889127,67.8477776 81.6219541,67.1061806 L74.6876955,59.9871392 C73.8207369,59.097078 72.8091677,58.6516854 71.653693,58.6516854 L66.0195198,58.6516854 C65.2971718,59.6902108 64.5748238,60.7287361 63.7078652,61.6180733 L71.7983036,61.6180733 C72.2314303,61.6180733 72.5206516,61.7665375 72.8091677,62.0634659 L79.7441314,69.1825074 C80.0326475,69.4794357 80.1772581,69.7756401 80.1772581,70.2210327 L80.1772581,72.2973595 C77.8656035,73.1874207 76.7101288,75.708416 77.5770875,77.933207 C78.4440461,80.3064621 80.8996061,81.4934517 83.0666501,80.6033905 C85.3783046,79.7133293 86.5337793,77.19161 85.6675259,74.966819 C85.0890834,73.7805535 84.2228299,72.7420281 82.9220394,72.2973595 Z M81.4773435,77.933207 C80.61109,77.933207 80.0326475,77.3400742 80.0326475,76.450013 C80.0326475,75.5606758 80.61109,74.966819 81.4773435,74.966819 C82.3443021,74.966819 82.9220394,75.5606758 82.9220394,76.450013 C82.9220394,77.3400742 82.3443021,77.933207 81.4773435,77.933207 Z" id="Shape" fill-rule="nonzero"></path>
                    <path d="M44.4936489,8.36890808 L44.4936489,20.2247191 C44.9492596,20.2247191 45.5559998,20.0806955 46.0108699,20.0806955 C46.4664805,20.0806955 47.0732208,20.0806955 47.5280908,20.2247191 L47.5280908,8.36890808 C49.9557925,7.50123757 51.1700136,5.04295543 50.2595329,2.87413205 C49.3490522,0.705308668 46.9213506,-0.595844207 44.4936489,0.2718263 C42.0666879,1.13949681 40.8524668,3.45304957 41.7629475,5.76589656 C42.2178175,6.92302582 43.1282982,7.93471994 44.4936489,8.36890808 Z M46.0108699,2.87413205 C46.9213506,2.87413205 47.5280908,3.45304957 47.5280908,4.3200143 C47.5280908,5.18768481 46.9213506,5.76589656 46.0108699,5.76589656 C45.1011298,5.76589656 44.4936489,5.18768481 44.4936489,4.3200143 C44.4936489,3.45304957 45.1011298,2.87413205 46.0108699,2.87413205 Z" id="Shape" fill-rule="nonzero"></path>
                    <path d="M76.0919454,40.4494382 C77.2641233,40.4494382 78.4370166,39.9778352 79.1698067,39.0338614 L82.6870558,35.2587341 C83.2731448,35.573648 83.8592337,35.7303371 84.5920238,35.7303371 C87.0837961,35.7303371 88.988764,33.6857004 88.988764,31.011236 C88.988764,28.3375394 87.0837961,26.2921348 84.5920238,26.2921348 C82.1009668,26.2921348 80.1952835,28.3375394 80.1952835,31.011236 C80.1952835,31.6410637 80.3419846,32.4275806 80.6353868,33.0566405 L77.1181376,36.8317678 C76.8247354,37.1466817 76.5313333,37.3033708 76.0919454,37.3033708 L68.7640449,37.3033708 C69.0574471,38.4048015 69.3501339,39.3487753 69.496835,40.4494382 L76.0919454,40.4494382 Z M84.5920238,29.4382022 C85.4715149,29.4382022 86.0576039,30.06803 86.0576039,31.011236 C86.0576039,31.9552097 85.4715149,32.5842697 84.5920238,32.5842697 C83.713248,32.5842697 83.1264437,31.9552097 83.1264437,31.011236 C83.1264437,30.06803 83.713248,29.4382022 84.5920238,29.4382022 Z" id="Shape" fill-rule="nonzero"></path>
                    <path d="M5.47998711,9.08191353 C7.42478779,9.08191353 9.07016373,7.87109212 9.66828314,6.05412105 L22.2317111,6.05412105 C22.6801181,6.05412105 22.9795429,6.20565847 23.2789676,6.5087333 L31.9535243,15.2890359 C32.252949,15.5921107 32.4019313,15.8944466 32.4019313,16.3490589 L32.4019313,25.2808989 C33.2994754,24.6754882 34.346732,24.0700775 35.3932584,23.6154652 L35.3932584,16.3490589 C35.3932584,15.1374985 34.9448514,13.9266771 34.0473072,13.169729 L25.3727506,4.38942636 C24.4752064,3.48094083 23.4279499,3.02632857 22.2317111,3.02632857 L9.66828314,3.02632857 C8.92045136,0.604685765 6.2278189,-0.606874609 3.98432355,0.301610929 C1.7408282,1.21009647 0.394877003,3.78327669 1.29242116,6.05412105 C1.89054057,7.87109212 3.53591651,9.08191353 5.47998711,9.08191353 Z M5.47998711,3.02632857 C6.37753127,3.02632857 6.97565068,3.63247824 6.97565068,4.54022481 C6.97565068,5.44871035 6.37753127,6.05412105 5.47998711,6.05412105 C4.58317303,6.05412105 3.98432355,5.44871035 3.98432355,4.54022481 C3.98432355,3.63247824 4.58317303,3.02632857 5.47998711,3.02632857 Z" id="Shape" fill-rule="nonzero"></path>
                    <path d="M8.66336234,56.7464379 L10.7586727,56.7464379 C11.9557841,56.7464379 13.1536262,56.3091442 13.9020035,55.4338447 L21.2359551,48.2868715 C21.0861335,47.2655702 20.9363119,46.0989789 20.9363119,45.0776776 C20.9363119,44.9323877 20.9363119,44.6403839 20.9363119,44.494382 L11.8066932,53.3919541 C11.50705,53.6839579 11.0583159,53.8292478 10.7586727,53.8292478 L8.66336234,53.8292478 C7.76516344,51.4960653 5.22038834,50.3287621 2.9752564,51.2040616 C0.730124466,52.079361 -0.616808574,54.4132554 0.281390321,56.7464379 C1.17958922,59.0803323 3.72363371,60.2476355 5.96876565,59.3723361 C7.16660771,58.9343304 8.21389759,58.059743 8.66336234,56.7464379 Z M2.9752564,55.2878428 C2.9752564,54.4132554 3.57454273,53.8292478 4.47201103,53.8292478 C5.37020992,53.8292478 5.96876565,54.4132554 5.96876565,55.2878428 C5.96876565,56.1631423 5.37020992,56.7464379 4.47201103,56.7464379 C3.57454273,56.7464379 2.9752564,56.1631423 2.9752564,55.2878428 Z" id="Shape" fill-rule="nonzero"></path>
                </g>
            </g>
        </g>
    </g>
</svg>