<?xml version="1.0" encoding="UTF-8"?>
<svg width="55px" height="55px" viewBox="0 0 55 55" version="1.1" xmlns="http://www.w3.org/2000/svg" xmlns:xlink="http://www.w3.org/1999/xlink">
    <!-- Generator: Sketch 52.5 (67469) - http://www.bohemiancoding.com/sketch -->
    <title>github</title>
    <g id="Welcome" stroke="none" stroke-width="1" fill="none" fill-rule="evenodd">
        <g id="Desktop-HD" transform="translate(-546.000000, -246.000000)" fill="#FFFFFF">
            <g id="Social" transform="translate(546.000000, 245.000000)">
                <g id="github" transform="translate(0.000000, 1.333333)">
                    <path d="M27.5,0 C12.3059574,0 0,12.2664708 0,27.4117596 C0,40.2941202 8.86787234,50.9858729 20.8321277,54 C20.6940426,53.6570614 20.6261702,53.1764808 20.6261702,52.698233 L20.6261702,48.0370674 L17.1880851,48.0370674 C15.3321277,48.0370674 13.6119149,47.2158811 12.8559574,45.7064846 C11.9619149,44.0617791 11.8238298,41.5258997 9.55595745,39.9488487 C8.86787234,39.4006135 9.41787234,38.8523783 10.1738298,38.9200328 C11.6178723,39.330626 12.7857447,40.2917873 13.8857447,41.7288634 C14.9857447,43.1682723 15.4678723,43.511211 17.5297872,43.511211 C18.4917021,43.511211 20.003617,43.4435564 21.3797872,43.2359269 C22.1357447,41.3159373 23.4417021,39.6035771 25.0238298,38.7823908 C15.8119149,37.6859204 11.4119149,33.1623969 11.4119149,26.9941677 C11.4119149,24.3206463 12.5797872,21.7847669 14.5059574,19.5918262 C13.8880851,17.4665399 13.0619149,13.0806584 14.7821277,11.3682983 C18.9082979,11.3682983 21.3821277,14.0418197 22,14.725364 C24.0619149,14.0394868 26.3321277,13.6288936 28.6678723,13.6288936 C31.0738298,13.6288936 33.2738298,14.0394868 35.3357447,14.725364 C35.953617,14.0394868 38.4297872,11.3682983 42.553617,11.3682983 C44.203617,13.0130038 43.4476596,17.4665399 42.7595745,19.5918262 C44.6857447,21.7171124 45.7857447,24.3206463 45.7857447,26.9941677 C45.7857447,33.1623969 41.453617,37.6859204 32.3119149,38.6447488 C34.8559574,39.9465157 36.6440426,43.6465201 36.6440426,46.387696 L36.6440426,52.6305785 C36.6440426,52.8358751 36.5761702,53.0411716 36.5761702,53.2464682 C47.3,49.5464639 55,39.4052793 55,27.4117596 C55,12.2664708 42.6940426,0 27.5,0 Z" id="Path"></path>
                </g>
            </g>
        </g>
    </g>
</svg>