<?xml version="1.0" encoding="UTF-8"?>
<svg width="55px" height="55px" viewBox="0 0 55 55" version="1.1" xmlns="http://www.w3.org/2000/svg" xmlns:xlink="http://www.w3.org/1999/xlink">
    <!-- Generator: Sketch 52.5 (67469) - http://www.bohemiancoding.com/sketch -->
    <title>linkedin</title>
    <g id="Welcome" stroke="none" stroke-width="1" fill="none" fill-rule="evenodd">
        <g id="Desktop-HD" transform="translate(-633.000000, -245.000000)" fill="#FFFFFF" fill-rule="nonzero">
            <g id="Social" transform="translate(546.000000, 245.000000)">
                <g id="linkedin" transform="translate(87.000000, 0.000000)">
                    <path d="M27.4999448,0 C12.3120448,0 0,12.3120695 0,27.5 C0,42.6879305 12.3120448,55 27.4999448,55 C42.6878448,55 55,42.6879305 55,27.5 C54.9998895,12.3120695 42.6876239,0 27.4999448,0 Z M20.1629076,40.7949895 L14.1250143,40.7949895 L14.1250143,21.2882418 L20.1629076,21.2882418 L20.1629076,40.7949895 Z M17.115188,18.7336881 C15.1432771,18.7336881 13.5446962,17.1220705 13.5446962,15.1343609 C13.5446962,13.1464304 15.1434981,11.5349232 17.115188,11.5349232 C19.086878,11.5349232 20.685459,13.1464304 20.685459,15.1343609 C20.6855695,17.1221809 19.0869885,18.7336881 17.115188,18.7336881 Z M42.7900135,40.7949895 L36.7812797,40.7949895 L36.7812797,30.5555678 C36.7812797,27.7471935 35.7145281,26.1795361 33.4938779,26.1795361 C31.0770638,26.1795361 29.8144797,27.8122502 29.8144797,30.5555678 L29.8144797,40.7949895 L24.0234481,40.7949895 L24.0234481,21.2882418 L29.8144797,21.2882418 L29.8144797,23.9154734 C29.8144797,23.9154734 31.5564282,20.6932323 35.6926585,20.6932323 C39.8289992,20.6932323 42.7900135,23.2188473 42.7900135,28.4435988 L42.7900135,40.7949895 Z" id="Shape"></path>
                </g>
            </g>
        </g>
    </g>
</svg>