<?xml version="1.0" encoding="UTF-8"?>
<svg width="55px" height="56px" viewBox="0 0 55 56" version="1.1" xmlns="http://www.w3.org/2000/svg" xmlns:xlink="http://www.w3.org/1999/xlink">
    <!-- Generator: Sketch 52.5 (67469) - http://www.bohemiancoding.com/sketch -->
    <title>mail</title>
    <g id="Welcome" stroke="none" stroke-width="1" fill="none" fill-rule="evenodd">
        <g id="Desktop-HD" transform="translate(-726.000000, -245.000000)" fill-rule="nonzero">
            <g id="Social" transform="translate(546.000000, 245.000000)">
                <g id="mail" transform="translate(180.000000, 0.666667)">
                    <path d="M27.4999448,0 C12.3120448,0 0,12.3120695 0,27.5 C0,42.6879305 12.3120448,55 27.4999448,55 C42.6878448,55 55,42.6879305 55,27.5 C54.9998895,12.3120695 42.6876239,0 27.4999448,0 Z" id="Path" fill="#FFFFFF"></path>
                    <path d="M11.8091511,16 C11.5237809,16 11.2546659,16.0477174 11,16.1454798 L16.0987357,21.2192317 L21.2540638,26.3837629 L21.3479831,26.4931637 L21.4984949,26.6386435 L21.6490066,26.7841232 L21.9500301,27.0931222 L26.371463,31.4755543 C26.4449127,31.5197802 26.6586394,31.7106496 26.8254064,31.7915364 C27.0403371,31.8951179 27.2727273,31.9911346 27.512342,31.9992814 C27.7712222,32.0080102 28.0355208,31.9364342 28.2685129,31.8270334 C28.4431066,31.7449828 28.5207706,31.6274352 28.7230584,31.4761362 L33.8404576,26.3663054 L39.0144491,21.2198136 L44,16.2554624 C43.6765429,16.0862819 43.3141904,15.9986223 42.9464178,16.0005819 L11.8091511,16.0005819 L11.8091511,16 Z M9.93393377,17 C9.35984106,17.5095094 9,18.2749639 9,19.1392251 L9,36.1774326 C9,36.8768176 9.23968212,37.5125138 9.63576159,38 L10.3904106,37.3303761 L16.0130861,32.2150449 L21,27.694935 L20.9008212,27.5836286 L15.4370861,22.3194921 L9.97335099,17.0369037 L9.93393377,17 Z M44.2857612,17 L39.246376,22.2451524 L34.093868,27.6042244 L34,27.6987535 L38.907609,32.4894391 L44.2291997,37.6970222 L44.5487118,38 C44.8351294,37.5370499 45,36.9668456 45,36.3524065 L45,19.0069252 C45,18.2228186 44.7304305,17.5114266 44.2857612,17 Z M21.484562,28 L16.8862351,32.6648797 L11.6622015,37.9440442 L11,38.6160719 C11.3490537,38.8507288 11.7463746,39 12.177247,39 L42.6202665,39 C43.1382552,39 43.6079767,38.7923717 44,38.4625007 L43.6691936,38.1172726 L38.4451599,32.838108 L33.6443465,28.0006143 L29.3214955,32.6458368 C29.0878119,32.808008 28.9312381,32.9873792 28.7028521,33.0973362 C28.3349625,33.2748646 27.932344,33.4247501 27.527371,33.4186072 C27.1212208,33.4118501 26.7227227,33.2459932 26.3583647,33.0592506 C26.1753028,32.965265 26.0775913,32.8718937 25.8633323,32.6845368 L21.484562,28 Z" id="Shape" fill="#262933"></path>
                </g>
            </g>
        </g>
    </g>
</svg>