<?xml version="1.0" encoding="UTF-8"?>
<svg width="61px" height="95px" viewBox="0 0 61 95" version="1.1" xmlns="http://www.w3.org/2000/svg" xmlns:xlink="http://www.w3.org/1999/xlink">
    <!-- Generator: Sketch 52.5 (67469) - http://www.bohemiancoding.com/sketch -->
    <title>phone</title>
    <desc>Created with Sketch.</desc>
    <g id="Welcome" stroke="none" stroke-width="1" fill="none" fill-rule="evenodd">
        <g id="Desktop-HD-Copy" transform="translate(-269.000000, -318.000000)" fill="#262933" fill-rule="nonzero" stroke="#FFFFFF">
            <g id="Mobile" transform="translate(124.000000, 316.000000)">
                <g id="phone" transform="translate(175.500000, 49.000000) scale(-1, -1) rotate(-9.000000) translate(-175.500000, -49.000000) translate(151.000000, 4.000000)">
                    <path d="M0.679391907,8.2423591 C0.679391907,0.150449535 9.40666463,0.150449535 9.40666463,0.150449535 L39.9521192,0.150449535 C39.9521192,0.150449535 48.6793919,0.150449535 48.6793919,8.2423591 L48.6793919,81.069533 C48.6793919,89.1614385 39.9521192,89.1614385 39.9521192,89.1614385 L9.40666463,89.1614385 C9.40666463,89.1614385 0.679391907,89.1614385 0.679391907,81.069533 L0.679391907,8.2423591 Z M4.88991822,10.1690024 L4.88991822,74.9042671 L44.047813,74.9042671 L44.047813,10.1690024 L4.88991822,10.1690024 Z M24.4688656,85.6934779 C26.9105466,85.6934779 28.8899182,83.8820436 28.8899182,81.6475239 C28.8899182,79.4130042 26.9105466,77.6015698 24.4688656,77.6015698 C22.0271845,77.6015698 20.047813,79.4130042 20.047813,81.6475239 C20.047813,83.8820436 22.0271845,85.6934779 24.4688656,85.6934779 Z M18.5202462,4.19492006 C18.201192,4.19492006 17.9425498,4.56697059 17.9425498,5.04689395 L17.9425498,5.27256185 C17.9425498,5.74309089 18.2032805,6.12453188 18.5202462,6.12453188 L30.417485,6.12453188 C30.7365391,6.12453188 30.9951814,5.75248521 30.9951814,5.27256185 L30.9951814,5.04689395 C30.9951814,4.57636105 30.7344507,4.19492006 30.417485,4.19492006 L18.5202462,4.19492006 Z" id="device-iPhone-smart-phone-vertical-glyph" transform="translate(24.679392, 44.655944) scale(1, -1) translate(-24.679392, -44.655944) "></path>
                </g>
            </g>
        </g>
    </g>
</svg>