<?xml version="1.0" encoding="UTF-8"?>
<svg width="95px" height="85px" viewBox="0 0 95 85" version="1.1" xmlns="http://www.w3.org/2000/svg" xmlns:xlink="http://www.w3.org/1999/xlink">
    <!-- Generator: Sketch 52.5 (67469) - http://www.bohemiancoding.com/sketch -->
    <title>web-programming</title>
    <desc>Created with Sketch.</desc>
    <g id="Welcome" stroke="none" stroke-width="1" fill="none" fill-rule="evenodd">
        <g id="Desktop-HD-Copy" transform="translate(-1098.000000, -325.000000)" fill="#000000">
            <g id="Frontend" transform="translate(966.000000, 325.000000)">
                <g id="web-programming" transform="translate(132.000000, 0.000000)">
                    <path d="M37.5413362,62.0432641 C37.1805356,62.0432641 36.817095,61.925183 36.5205342,61.6848338 L26.3160349,53.4158074 C25.9640342,53.1302355 25.7616337,52.713183 25.7616337,52.272682 C25.7616337,51.8330182 25.9649142,51.415966 26.3160349,51.130394 L36.5205342,42.8613677 C37.1831757,42.323722 38.1784576,42.3999302 38.7434186,43.0305336 C39.3074996,43.6619743 39.2282996,44.6091354 38.5647782,45.1459437 L29.7709214,52.272682 L38.5647782,59.3994201 C39.2282996,59.9370661 39.3074996,60.884227 38.7434186,61.5148304 C38.431018,61.8640489 37.9874971,62.0432641 37.5413362,62.0432641 Z" id="Path"></path>
                    <path d="M56.9175991,62.0432641 C56.4714235,62.0432641 56.027888,61.8640489 55.716357,61.5148304 C55.1513774,60.884227 55.23146,59.9370661 55.8941233,59.3994201 L64.6882701,52.272682 L55.8941233,45.1459437 C55.23146,44.6091354 55.1513774,43.6619743 55.716357,43.0305336 C56.2804566,42.3999302 57.2766516,42.323722 57.9384347,42.8613677 L68.1432705,51.130394 C68.4952828,51.415966 68.69769,51.8330182 68.69769,52.272682 C68.69769,52.713183 68.4952828,53.1302355 68.1432705,53.4158074 L57.9384347,61.6848338 C57.6418642,61.925183 57.2784116,62.0432641 56.9175991,62.0432641 Z" id="Path"></path>
                    <path d="M43.5658706,68.8823445 C43.4573225,68.8823445 43.3478919,68.8709498 43.2375789,68.84816 C42.3833145,68.669349 41.8361617,67.8357741 42.0161926,66.9872981 L48.3940532,36.9111028 C48.5740839,36.0626268 49.4124634,35.5191814 50.2676102,35.6979925 C51.1218747,35.8768035 51.6690275,36.7095022 51.4889966,37.5588546 L45.1111362,67.6350497 C44.9540503,68.3748366 44.2974669,68.8823445 43.5658706,68.8823445 Z" id="Path"></path>
                    <path d="M83.9885968,84.5145285 L10.4707269,84.5145285 C4.69755529,84.5145285 0,79.7793188 0,73.9579155 L0,11.0481529 C0,5.22762689 4.69755529,0.491539944 10.4707269,0.491539944 L83.9885968,0.491539944 C89.7617684,0.491539944 94.4593237,5.22762689 94.4593237,11.0481529 L94.4593237,73.9579155 C94.4593237,79.7793188 89.7617684,84.5145285 83.9885968,84.5145285 Z M10.4707269,3.63606295 C6.41714941,3.63606295 3.11893993,6.96132596 3.11893993,11.0481529 L3.11893993,73.9579155 C3.11893993,78.0447424 6.41714941,81.3700054 10.4707269,81.3700054 L83.9885968,81.3700054 C88.0421743,81.3700054 91.3403838,78.0447424 91.3403838,73.9579155 L91.3403838,11.0481529 C91.3403838,6.96132596 88.0421743,3.63606295 83.9885968,3.63606295 L10.4707269,3.63606295 Z" id="Shape" fill-rule="nonzero"></path>
                    <path d="M92.8998538,26.8708503 L1.55946997,26.8708503 C0.697932318,26.8708503 0,26.2149658 0,25.405333 C0,24.5965179 0.697932318,23.9398158 1.55946997,23.9398158 L92.8998538,23.9398158 C93.7613914,23.9398158 94.4593237,24.5965179 94.4593237,25.405333 C94.4593237,26.2149658 93.7613914,26.8708503 92.8998538,26.8708503 Z" id="Path"></path>
                    <path d="M27.6699028,19.0547583 C25.0401862,19.0547583 22.89923,16.8624694 22.89923,14.1697009 C22.89923,11.476071 25.0401862,9.28464339 27.6699028,9.28464339 C30.3004609,9.28464339 32.4405758,11.476071 32.4405758,14.1697009 C32.4405758,16.8624694 30.3004609,19.0547583 27.6699028,19.0547583 Z M27.6699028,12.3719377 C26.7024767,12.3719377 25.9142347,13.1782176 25.9142347,14.1697009 C25.9142347,15.1611841 26.7024767,15.9674641 27.6699028,15.9674641 C28.6381703,15.9674641 29.4255711,15.1611841 29.4255711,14.1697009 C29.4255711,13.1782176 28.6381703,12.3719377 27.6699028,12.3719377 Z" id="Shape" fill-rule="nonzero"></path>
                    <path d="M11.4496149,19.0547583 C8.81905706,19.0547583 6.67894208,16.8633307 6.67894208,14.1697008 C6.67894208,11.4760711 8.81905706,9.28464339 11.4496149,9.28464339 C14.0801729,9.28464339 16.2202879,11.4760711 16.2202879,14.1697008 C16.2202879,16.8633307 14.0801729,19.0547583 11.4496149,19.0547583 Z M11.4496149,12.3719377 C10.4821888,12.3719377 9.69394683,13.1790791 9.69394683,14.1697008 C9.69394683,15.161184 10.4821888,15.967464 11.4496149,15.967464 C12.4178824,15.967464 13.2052832,15.161184 13.2052832,14.1697008 C13.2052832,13.1790791 12.4178824,12.3719377 11.4496149,12.3719377 Z" id="Shape" fill-rule="nonzero"></path>
                    <path d="M42.9356355,19.0547583 C40.305687,19.0547583 38.1653833,16.8631375 38.1653833,14.1692701 C38.1653833,11.4762642 40.305687,9.28464339 42.9356355,9.28464339 C45.5664255,9.28464339 47.7067292,11.4762642 47.7067292,14.1692701 C47.7067292,16.8631375 45.5664255,19.0547583 42.9356355,19.0547583 Z M42.9356355,12.3713484 C41.9681241,12.3713484 41.1806539,13.1776995 41.1806539,14.1692701 C41.1806539,15.1608408 41.9681241,15.9671919 42.9356355,15.9671919 C43.9039884,15.9671919 44.6914586,15.1608408 44.6914586,14.1692701 C44.6914586,13.1776995 43.9039884,12.3713484 42.9356355,12.3713484 Z" id="Shape" fill-rule="nonzero"></path>
                </g>
            </g>
        </g>
    </g>
</svg>