<?xml version="1.0" encoding="UTF-8"?>
<svg width="77px" height="54px" viewBox="0 0 77 54" version="1.1" xmlns="http://www.w3.org/2000/svg" xmlns:xlink="http://www.w3.org/1999/xlink">
    <!-- Generator: Sketch 52.5 (67469) - http://www.bohemiancoding.com/sketch -->
    <title>youtube-icon</title>
    <desc>Created with Sketch.</desc>
    <g id="Welcome" stroke="none" stroke-width="1" fill="none" fill-rule="evenodd">
        <g id="Desktop-HD" transform="translate(-818.000000, -246.000000)">
            <g id="Social" transform="translate(546.000000, 245.000000)">
                <g id="youtube-icon" transform="translate(272.000000, 1.000000)">
                    <path d="M50.9696532,26.0311902 C43.8280347,22.1998681 36.9898844,18.677547 30,15 L30,37 C37.3554913,32.9858886 45.1083815,29.3097923 51,26.0311902 L50.9696532,26.0311902 Z" id="Path" fill="#262933"></path>
                    <path d="M31.8899075,53.9330816 C17.2255917,53.6634732 12.21701,53.4209683 9.1384323,52.7876027 C7.05557089,52.3667854 5.24556718,51.4324285 3.9184216,50.0772542 C2.89270521,49.0516013 2.07698925,47.4867317 1.44413081,45.3155999 C0.901272557,43.5067989 0.689843552,42.0018423 0.388414363,38.3257539 C-0.0730151546,30.0292345 -0.18301538,23.2462309 0.388414363,15.6672407 C0.859843901,11.481892 1.0884158,6.51339532 4.21985079,3.61474896 C5.69842525,2.25814823 7.41842878,1.38513072 9.34986131,1.02422642 C12.3670103,0.452200245 25.2213224,0 38.5284926,0 C51.8056626,0 64.6885462,0.452200245 67.7085524,1.02422642 C70.1214145,1.47642667 72.3842763,2.8316009 73.7128504,4.57906242 C76.5699991,9.06682888 76.6199992,14.6472937 76.9099998,19.0123813 C77.0300001,21.0922171 77.0300001,32.9022039 76.9099998,34.9820398 C76.4585703,41.8805899 76.0957124,44.32133 75.069996,46.8519396 C74.435709,48.4496186 73.8942793,49.2926797 72.9571346,50.2270366 C71.4873649,51.664888 69.6136411,52.6212885 67.585695,52.9687681 C54.895669,53.9216696 44.1199326,54.1285119 31.8899075,53.9330816 Z M51.3228045,26.2133492 C44.26279,22.4459648 37.5027762,18.9524683 30.592762,15.3362928 L30.592762,36.9705796 C37.8642055,33.0234564 45.5299355,29.4072809 51.3528046,26.1833927 L51.3228045,26.2133492 Z" id="Shape" fill="#FFFFFF" fill-rule="nonzero"></path>
                </g>
            </g>
        </g>
    </g>
</svg>